<?xml version="1.0" encoding="UTF-8" standalone="no"?><!DOCTYPE svg PUBLIC "-//W3C//DTD SVG 1.1//EN" "http://www.w3.org/Graphics/SVG/1.1/DTD/svg11.dtd"><svg width="100%" height="100%" viewBox="0 0 1400 1400" version="1.1" xmlns="http://www.w3.org/2000/svg" xmlns:xlink="http://www.w3.org/1999/xlink" xml:space="preserve" xmlns:serif="http://www.serif.com/" style="fill-rule:evenodd;clip-rule:evenodd;stroke-linejoin:round;stroke-miterlimit:2;"><path d="M582.192,1059.43l222.556,207.603c10.866,10.217 28.302,10.217 39.167,0l116.237,-110.215c-7.583,1.992 -15.23,3.724 -22.942,5.161c-117.56,21.897 -232.505,-77.535 -355.018,-102.549Zm520.884,-38.133c20.111,-18.554 103.512,-79.782 103.512,-79.782c-228.498,57.945 -389.211,2.849 -511.308,-201.008c-56.288,-94.16 -99.816,-127.048 -120.947,-138.283c-2.269,-1.116 -4.836,-0.818 -6.659,0.856c-1.86,1.711 -2.418,4.278 -1.414,6.547c53.312,121.803 -0.149,236.537 78.424,353.242c91.508,136.041 357.822,151.214 458.392,58.428Zm-826.106,40.681c15.512,2.533 45.523,-14.881 64.698,-28.604c25.382,-18.165 87.591,-80.387 87.591,-80.387l0,-0.041c10.886,-9.986 28.094,-9.931 38.912,0.124l20.985,19.575c7.403,-2.573 14.812,-4.819 22.193,-6.651c1.86,-0.446 3.274,-1.711 3.98,-3.571c0.707,-1.823 0.558,-3.683 -0.558,-5.246c-34.747,-53.014 -109.748,-115.143 -171.021,-128.759c-1.563,-0.261 -2.828,-1.265 -3.684,-2.53c-0.855,-1.414 -1.153,-2.865 -0.706,-4.39c9.784,-40.588 -10.789,-101.824 -36.608,-133.335c-1.414,-1.674 -1.674,-3.944 -0.856,-6.064c1.005,-2.158 2.865,-3.274 5.134,-3.423c39.696,-1.563 66.482,34.599 83.781,64.249c1.302,2.27 3.721,3.237 6.25,2.679c2.567,-0.558 4.241,-2.53 4.539,-5.097c3.125,-31.92 0.149,-53.051 -13.616,-84.227c-0.856,-2.121 -0.558,-4.39 0.855,-6.101c1.563,-1.712 3.684,-2.419 5.953,-1.861c12.351,3.423 33.334,12.501 54.874,37.166c21.727,24.963 40.142,77.866 50.633,112.316c0.856,2.678 3.423,4.39 6.25,4.092c2.828,-0.26 4.948,-2.679 5.097,-5.506c1.265,-28.795 1.265,-69.495 -6.361,-96.281c-12.91,-45.388 -34.748,-119.124 -88.506,-122.249c-73.476,-4.278 -102.531,55.023 -164.511,64.25c-2.679,0.409 -5.246,-1.005 -6.213,-3.572c-1.005,-2.53 -0.298,-5.246 1.823,-6.92c29.204,-21.577 58.445,-51.786 47.805,-92.486c-0.595,-1.972 0,-3.944 1.265,-5.395c1.414,-1.562 3.274,-2.12 5.246,-1.822c20.275,3.534 68.639,11.198 102.94,9.784c75.187,-2.976 89.511,-69.346 249.595,50.038c2.12,1.562 4.985,1.562 7.105,-0.112c2.121,-1.711 2.828,-4.427 1.675,-6.808c-9.041,-21.02 -25.224,-55.879 -45.797,-92.338c-32.888,-58.259 -74.146,-97.434 -140.516,-119.979c-71.057,-24.219 -220.538,55.73 -225.784,137.13c-0.112,1.414 -0.558,2.716 -1.674,3.683c-33.78,34.896 -188.47,127.234 -210.159,153.016c-16.891,20.015 3.087,42.709 8.928,51.191c5.804,8.519 10.64,9.375 28.498,2.269c52.605,-21.131 72.88,-52.158 100.671,-43.788c2.418,0.707 3.98,2.679 4.129,5.246c0.149,2.53 -1.265,4.65 -3.534,5.655c-19.159,8.222 -19.011,10.491 -34.041,32.069c-13.355,19.122 -39.584,37.835 -41.853,48.066c-8.222,37.984 45.09,74.741 78.87,85.492c1.823,0.595 3.237,2.009 3.832,3.981c4.651,16.592 14.286,25.372 27.493,30.618c2.269,0.856 4.539,0.446 6.25,-1.265c1.674,-1.711 2.121,-4.092 1.265,-6.25c-1.86,-4.65 -2.976,-9.636 -2.418,-13.877c0.298,-2.418 2.009,-4.278 4.39,-4.836c58.297,-13.877 132.033,28.237 140.255,96.021c0.297,1.971 -0.409,3.683 -1.823,4.948c-1.414,1.264 -3.274,1.711 -5.246,1.264c-54.056,-12.76 -72.769,24.852 -115.887,-15.439c-1.674,-1.562 -3.943,-1.971 -6.213,-1.116c-2.12,0.819 -3.571,2.828 -3.571,5.097l-0.261,10.491c0,1.972 -1.004,3.534 -2.567,4.688c-31.473,20.387 -38.988,80.544 50.224,95.128Zm328.986,-673.15c124.22,115.292 263.08,416.239 382.036,495.766c92.062,61.548 187.221,3.743 221.702,-18.601c35.246,-22.842 82.991,-74.881 82.991,-74.881c0,-0 -198.33,-14.592 -262.877,-76.275c-161.646,-154.578 -188.321,-330.696 -419.76,-336.091c-2.381,0 -4.539,1.265 -5.506,3.534c-1.005,2.27 -0.446,4.837 1.414,6.548Zm-355.511,396.62c10.844,0 16.267,8.232 16.267,16.463c-0,8.231 -5.423,16.462 -16.267,16.462c-21.578,-0 -21.578,-32.925 -0,-32.925Zm-58.446,-26.637c10.845,0 16.267,8.222 16.267,16.444c-0,8.222 -5.422,16.443 -16.267,16.443c-21.689,0 -21.689,-32.887 -0,-32.887Zm52.493,-34.747c10.845,-0 16.267,8.221 16.267,16.443c0,8.222 -5.422,16.444 -16.267,16.444c-21.726,-0 -21.726,-32.887 0,-32.887Zm1052.31,-49.91c24.67,-28.25 38.492,-60.069 38.492,-60.069c-0,0 -89.27,13.629 -231.932,-91.428c-146.989,-108.243 -211.388,-103.769 -221.582,-105.889c-2.418,-0.596 -4.836,0.409 -6.101,2.529c-1.265,2.009 -1.154,4.539 0.297,6.548c88.618,115.999 155.565,247.121 304.871,291.559c69.727,20.753 85.677,-8.58 115.955,-43.25Zm55.924,-152.28c-221.676,-29.565 -388.755,-168.743 -529.243,-211.767c-118.119,-36.161 -249.594,21.689 -273.813,33.334c-2.419,1.116 -5.134,0.558 -6.808,-1.414c-11.794,-13.319 -26.266,-20.722 -40.849,-26.935c-1.563,-0.707 -2.716,-2.009 -3.274,-3.72c-0.558,-1.823 -0.261,-3.535 0.707,-4.948c22.433,-33.036 140.701,-193.158 317.787,-180.397c82.374,5.96 169.282,22.582 203.138,56.075c33.857,33.494 0,144.886 0,144.886c-0.007,3.99 2.303,7.639 5.912,9.34c3.608,1.697 7.893,1.14 10.946,-1.425c15.883,-13.334 39.188,-32.591 51.815,-42.016c21.68,-15.036 48.64,-42.169 71.824,-30.404c46.253,23.471 201.128,117.653 205.696,171.231c2.435,28.551 -4.376,59.902 -13.838,88.16Zm-896.577,-360.932c-81.319,35.055 -143.527,101.309 -166.863,194.143c-0.558,2.381 0.298,4.799 2.419,6.213c2.12,1.414 4.687,1.302 6.659,-0.149c41.407,-30.469 77.308,-39.137 126.49,-49.033c2.009,-0.447 3.571,-1.712 4.278,-3.572c19.324,-49.041 54.743,-92.4 92.302,-127.79l-0.224,-0.116c-19.716,-9.486 -41.836,-16.15 -65.061,-19.696Z" style="fill:#ff686b;"/></svg>